<svg width="120" height="120" viewBox="0 0 120 120" fill="none" xmlns="http://www.w3.org/2000/svg">
<rect x="0.5" y="0.5" width="119" height="119" rx="5.5" stroke="#E43CBF"/>
<path fill-rule="evenodd" clip-rule="evenodd" d="M31.3676 57.1179L52.0793 72.8588C52.2533 72.991 52.4658 73.0626 52.6844 73.0626H76.758C77.4547 73.0626 78.1297 73.3051 78.6672 73.7485L95.2925 87.4644C95.7451 87.8378 96.4205 87.7431 96.7529 87.2596L99.6754 83.0087C99.967 82.5845 99.8889 82.0082 99.4949 81.6769L80.6921 65.8654C80.5119 65.7139 80.284 65.6308 80.0485 65.6308H55.5161C54.8584 65.6308 54.219 65.4146 53.6961 65.0156L37.4012 52.5801C37.0732 52.3297 36.6252 52.3066 36.2731 52.5217L31.4512 55.4684C30.8505 55.8355 30.8071 56.6919 31.3676 57.1179ZM30.7625 57.914L51.4742 73.6549C51.8222 73.9194 52.2473 74.0626 52.6844 74.0626H76.758C77.2225 74.0626 77.6725 74.2243 78.0308 74.5198L94.6561 88.2358C95.5614 88.9826 96.9121 88.7931 97.577 87.8261L100.499 83.5753C101.083 82.7268 100.927 81.5742 100.139 80.9115L81.3357 65.1C80.9753 64.797 80.5195 64.6308 80.0485 64.6308H55.5161C55.0777 64.6308 54.6514 64.4867 54.3028 64.2207L38.0079 51.7851C37.3519 51.2845 36.4558 51.2381 35.7517 51.6684L30.9298 54.6151C29.7284 55.3493 29.6415 57.0621 30.7625 57.914Z" fill="#E43CBF"/>
<path fill-rule="evenodd" clip-rule="evenodd" d="M70.2887 75.5342H62.0273C61.4751 75.5342 61.0273 75.9819 61.0273 76.5342V90.4546C61.0273 91.0069 61.4751 91.4546 62.0273 91.4546H70.2887C70.841 91.4546 71.2887 91.0069 71.2887 90.4546V76.5342C71.2887 75.9819 70.841 75.5342 70.2887 75.5342ZM62.0273 74.5342C60.9228 74.5342 60.0273 75.4296 60.0273 76.5342V90.4546C60.0273 91.5592 60.9228 92.4546 62.0273 92.4546H70.2887C71.3933 92.4546 72.2887 91.5592 72.2887 90.4546V76.5342C72.2887 75.4296 71.3933 74.5342 70.2887 74.5342H62.0273Z" fill="#E43CBF"/>
<path fill-rule="evenodd" clip-rule="evenodd" d="M77.8349 95.3408H45.0508C44.4985 95.3408 44.0508 95.7885 44.0508 96.3408V97.9999C44.0508 98.5522 44.4985 98.9999 45.0508 98.9999H77.8349C78.3872 98.9999 78.8349 98.5522 78.8349 97.9999V96.3408C78.8349 95.7885 78.3872 95.3408 77.8349 95.3408ZM45.0508 94.3408C43.9462 94.3408 43.0508 95.2363 43.0508 96.3408V97.9999C43.0508 99.1045 43.9462 99.9999 45.0508 99.9999H77.8349C78.9394 99.9999 79.8349 99.1045 79.8349 97.9999V96.3408C79.8349 95.2363 78.9394 94.3408 77.8349 94.3408H45.0508Z" fill="#E43CBF"/>
<path fill-rule="evenodd" clip-rule="evenodd" d="M70.2898 58.5571H67.6875C67.1352 58.5571 66.6875 59.0048 66.6875 59.5571V62.1594C66.6875 62.7117 67.1352 63.1594 67.6875 63.1594H70.2898C70.8421 63.1594 71.2898 62.7117 71.2898 62.1594V59.5571C71.2898 59.0048 70.8421 58.5571 70.2898 58.5571ZM67.6875 57.5571C66.5829 57.5571 65.6875 58.4526 65.6875 59.5571V62.1594C65.6875 63.264 66.5829 64.1594 67.6875 64.1594H70.2898C71.3943 64.1594 72.2898 63.264 72.2898 62.1594V59.5571C72.2898 58.4526 71.3943 57.5571 70.2898 57.5571H67.6875Z" fill="#E43CBF"/>
<path fill-rule="evenodd" clip-rule="evenodd" d="M70.4052 54.7842H56.2575C55.7679 54.7842 55.3711 55.181 55.3711 55.6705C55.3711 56.1601 55.7679 56.5569 56.2575 56.5569H70.4052C70.8947 56.5569 71.2915 56.1601 71.2915 55.6705C71.2915 55.181 70.8947 54.7842 70.4052 54.7842ZM56.2575 53.7842C55.2156 53.7842 54.3711 54.6287 54.3711 55.6705C54.3711 56.7124 55.2156 57.5569 56.2575 57.5569H70.4052C71.447 57.5569 72.2915 56.7124 72.2915 55.6705C72.2915 54.6287 71.447 53.7842 70.4052 53.7842H56.2575Z" fill="#E43CBF"/>
<path fill-rule="evenodd" clip-rule="evenodd" d="M20.9669 37.0773C28.4312 36.4282 32.8131 45.2756 27.7731 50.8196C27.1257 51.5318 25.9641 51.3666 25.5414 50.5014C23.7403 46.8148 20.9087 41.2521 19.3906 39.0023C19.1422 38.6341 19.2015 38.1776 19.3283 37.8722C19.4534 37.5713 19.7449 37.1835 20.2235 37.1419L20.9669 37.0773ZM27.0332 50.1469C31.4611 45.2762 27.6113 37.5033 21.0535 38.0735L20.3307 38.1363C20.3292 38.1376 20.3274 38.1392 20.3254 38.1411C20.3044 38.1606 20.2753 38.1992 20.2518 38.2558C20.2285 38.3119 20.2185 38.367 20.2187 38.4087C20.2189 38.4316 20.2218 38.4439 20.2231 38.4482C21.789 40.7709 24.6494 46.3975 26.4399 50.0625C26.5522 50.2924 26.8608 50.3365 27.0332 50.1469Z" fill="#E43CBF"/>
<path fill-rule="evenodd" clip-rule="evenodd" d="M56.594 18.4969C64.0707 18.9834 67.065 28.3915 61.245 33.11C60.4973 33.7162 59.374 33.3773 59.087 32.4582C57.8638 28.5417 55.9055 22.6149 54.7449 20.1615C54.555 19.76 54.6826 19.3177 54.8542 19.035C55.0232 18.7564 55.37 18.4172 55.8494 18.4484L56.594 18.4969ZM60.6152 32.3333C65.7284 28.1878 63.0977 19.9222 56.5291 19.4947L55.8051 19.4476C55.8034 19.4487 55.8014 19.4499 55.7991 19.4515C55.7754 19.4677 55.7409 19.5014 55.7091 19.5538C55.6776 19.6057 55.6593 19.6587 55.6532 19.6999C55.6499 19.7226 55.651 19.7351 55.6516 19.7396C56.8484 22.2723 58.8255 28.2667 60.0415 32.1601C60.1178 32.4043 60.4162 32.4946 60.6152 32.3333Z" fill="#E43CBF"/>
<path fill-rule="evenodd" clip-rule="evenodd" d="M77.5734 25.637C82.7685 28.2177 87.3068 33.029 88.497 41.1632C90.3907 54.1056 83.6093 62.7625 79.9191 65.5039L79.3227 64.7011C82.7721 62.1387 89.3388 53.8236 87.5075 41.308C86.3696 33.531 82.0609 28.9828 77.1285 26.5326C72.1706 24.0698 66.5784 23.7282 62.9508 24.4118L62.7656 23.4291C66.5881 22.7088 72.4039 23.0691 77.5734 25.637Z" fill="#E43CBF"/>
</svg>
