<svg width="120" height="120" viewBox="0 0 120 120" fill="none" xmlns="http://www.w3.org/2000/svg">
<rect x="0.5" y="0.5" width="119" height="119" rx="5.5" stroke="#57BFEB"/>
<path fill-rule="evenodd" clip-rule="evenodd" d="M43.6162 43.9125C46.8971 41.2883 51.5639 40.6498 55.3109 42.7699C59.4754 45.1262 62.3538 45.8848 64.4802 45.9795C66.3326 46.0619 67.643 45.6462 68.8294 45.2699C69.0042 45.2144 69.1763 45.1598 69.3471 45.1078L69.6385 46.0644C69.4781 46.1132 69.3127 46.1659 69.1413 46.2205C67.9505 46.5997 66.4757 47.0693 64.4358 46.9785C62.1035 46.8747 59.0704 46.046 54.8185 43.6402C51.466 41.7433 47.239 42.2953 44.2408 44.6934C41.2672 47.0718 39.4915 51.285 41.1159 56.7536L41.1183 56.7619L41.1183 56.7619L42.7757 62.7146C42.7774 62.7205 42.7789 62.7264 42.7803 62.7324C43.5082 65.7763 45.2314 70.275 47.2 74.0101C48.1843 75.8777 49.2185 77.5324 50.2062 78.7127C50.7003 79.3032 51.1703 79.7598 51.6035 80.0652C52.0408 80.3736 52.4013 80.5002 52.6869 80.5002C53.34 80.5002 53.7996 80.3576 54.1353 80.1404C54.4712 79.9231 54.723 79.6052 54.9168 79.187C55.319 78.319 55.4283 77.1293 55.5468 75.7996L55.5491 75.7739C55.6622 74.5055 55.7864 73.1109 56.2891 72.0162C56.5484 71.4514 56.9163 70.9456 57.4497 70.5704C57.9621 70.2099 58.5967 69.9915 59.3706 69.9316C59.4118 69.9206 59.4551 69.9147 59.4998 69.9147C60.3706 69.9147 61.0823 70.0948 61.6546 70.4421C62.2288 70.7906 62.625 71.2848 62.9007 71.8493C63.4364 72.9466 63.5419 74.3752 63.6273 75.6746C63.6306 75.7239 63.6338 75.7729 63.637 75.8217C63.722 77.1213 63.7985 78.2894 64.1567 79.155C64.3357 79.5874 64.5739 79.9123 64.8955 80.1332C65.2161 80.3533 65.6634 80.5002 66.3139 80.5002C66.5465 80.5002 66.8715 80.3836 67.2928 80.0719C67.7064 79.7659 68.1643 79.3078 68.6523 78.7155C69.6273 77.5323 70.6731 75.8747 71.6785 74.0062C73.69 70.2677 75.4939 65.7708 76.2205 62.7323C76.2244 62.7158 76.2292 62.6995 76.2348 62.6834C78.3099 56.756 78.8343 52.5131 78.3111 49.5014C77.7944 46.5275 76.2534 44.7291 74.0802 43.6531C69.5154 41.3931 64.9134 43.4512 62.5287 44.8285L62.0286 43.9626C64.4534 42.5621 69.4702 40.2549 74.5239 42.7569C76.9761 43.971 78.7238 46.0347 79.2963 49.3302C79.8615 52.5835 79.2779 57.0099 77.1871 62.9898C76.4313 66.134 74.5937 70.6987 72.5591 74.48C71.5387 76.3765 70.4574 78.0974 69.424 79.3515C68.9079 79.9778 68.3913 80.5031 67.8876 80.8758C67.3917 81.2427 66.8566 81.5001 66.3139 81.5002C65.5088 81.5002 64.8519 81.3162 64.3294 80.9575C63.808 80.5994 63.4645 80.0974 63.2327 79.5374C62.8089 78.5134 62.7234 77.191 62.6441 75.9641C62.6392 75.8891 62.6344 75.8145 62.6295 75.7403C62.5409 74.3934 62.4354 73.1756 62.0021 72.2881C61.7932 71.8602 61.5153 71.5274 61.1357 71.297C60.7703 71.0752 60.2761 70.9276 59.5913 70.9155C59.5711 70.9193 59.5504 70.9218 59.5293 70.923C58.861 70.9625 58.3813 71.1376 58.025 71.3883C57.6679 71.6395 57.4014 71.9901 57.1979 72.4334C56.7782 73.3473 56.661 74.5634 56.5429 75.8883L56.5352 75.975C56.4243 77.2216 56.3042 78.5713 55.8242 79.6074C55.5713 80.1532 55.209 80.6368 54.6786 80.98C54.148 81.3233 53.4892 81.5002 52.6869 81.5002C52.1143 81.5002 51.5525 81.2528 51.0273 80.8825C50.4979 80.5093 49.9649 79.9826 49.4393 79.3544C48.3875 78.0975 47.3153 76.3737 46.3153 74.4763C44.3172 70.6851 42.5618 66.1132 41.8099 62.974L40.1561 57.0342C38.4231 51.1949 40.3115 46.5557 43.6162 43.9125Z" fill="#57BFEB"/>
<path fill-rule="evenodd" clip-rule="evenodd" d="M60 23.5C39.8416 23.5 23.5 39.8416 23.5 60C23.5 80.1584 39.8416 96.5 60 96.5C69.7508 96.5 78.6077 92.6771 85.1553 86.4474C92.1445 79.7976 96.5 70.4078 96.5 60C96.5 39.8416 80.1584 23.5 60 23.5ZM22.5 60C22.5 39.2893 39.2893 22.5 60 22.5C80.7107 22.5 97.5 39.2893 97.5 60C97.5 70.5096 93.1761 80.01 86.2115 86.8181L102.356 103.148L101.644 103.852L85.487 87.5077C78.7977 93.7086 69.8411 97.5 60 97.5C39.2893 97.5 22.5 80.7107 22.5 60Z" fill="#57BFEB"/>
</svg>
