<svg width="120" height="120" viewBox="0 0 120 120" fill="none" xmlns="http://www.w3.org/2000/svg">
<rect x="0.5" y="0.5" width="119" height="119" rx="5.5" stroke="#FCEEC3"/>
<path fill-rule="evenodd" clip-rule="evenodd" d="M24.315 48.8258C20.0003 34.2197 33.7816 25.8092 43.0394 31.0765C48.2449 34.0383 51.8543 34.9984 54.5317 35.1182C56.8649 35.2226 58.5194 34.6947 60 34.2223C60.2177 34.1528 60.4316 34.0845 60.6433 34.0197L60.9362 34.9758C60.7349 35.0375 60.5277 35.1038 60.3135 35.1724C58.8285 35.6477 57.0088 36.2301 54.487 36.1172C51.6026 35.9882 47.8379 34.9572 42.5449 31.9457C34.0956 27.1384 21.2214 34.7674 25.2673 48.5199L31.2576 63.4309L30.3296 63.8037L24.3305 48.8706C24.3246 48.8559 24.3194 48.841 24.315 48.8258ZM51.5397 32.5721C54.5592 30.8183 60.7671 27.9547 67.0117 31.0635C70.0364 32.5694 72.19 35.1246 72.8969 39.2163C73.5971 43.2691 72.8749 48.8033 70.2635 56.3069C69.5528 58.6035 69.0798 60.6062 68.6708 62.3377C68.6524 62.4156 68.6341 62.493 68.6159 62.5698C68.1967 64.3428 67.8317 65.8567 67.3254 67.0698C66.8132 68.2969 66.1377 69.2645 65.07 69.9107C64.0131 70.5505 62.634 70.8372 60.7898 70.8372H35.0836C35.2263 72.543 35.5114 74.8775 35.9505 76.9143C36.1946 78.0465 36.4818 79.0651 36.8093 79.8277C36.9732 80.2092 37.1397 80.5089 37.3038 80.7225C37.4711 80.9402 37.6075 81.0317 37.7002 81.0624C37.8601 81.1155 38.2249 81.1727 38.8117 81.2203C39.3801 81.2665 40.1095 81.3006 40.9639 81.3242C42.6718 81.3714 44.8582 81.3761 47.2119 81.3543C51.918 81.3108 57.2752 81.1616 60.772 81.0373C61.044 81.0276 61.2738 81.2373 61.289 81.5091C61.4235 83.9208 60.3282 87.1429 56.6898 89.0364C53.186 90.8599 47.4043 91.4085 38.24 88.9658C38.887 91.1283 40.4162 93.8177 43.147 95.6639C46.2113 97.7355 50.8612 98.7939 57.645 96.7382C57.828 96.6828 58.0265 96.7365 58.1565 96.8766C58.2865 97.0167 58.3253 97.2186 58.2565 97.3969C57.6052 99.083 56.135 101.544 53.821 103.515C51.4972 105.493 48.309 106.986 44.2536 106.675L44.33 105.678C48.0736 105.965 51.0096 104.595 53.1727 102.753C54.9345 101.253 56.1748 99.446 56.9 97.99C50.4283 99.7123 45.7792 98.6504 42.587 96.4923C39.2481 94.2351 37.575 90.8265 37.0535 88.3603C37.0174 88.1892 37.0732 88.0117 37.2008 87.8921C37.3284 87.7725 37.5092 87.7282 37.6775 87.7754C47.2268 90.4495 52.9503 89.8552 56.2282 88.1493C59.2267 86.5889 60.2493 84.0609 60.298 82.0545C56.7987 82.1751 51.7155 82.3127 47.2211 82.3543C44.8628 82.3761 42.6623 82.3715 40.9363 82.3238C40.0737 82.3 39.3244 82.2652 38.7308 82.2171C38.1556 82.1704 37.6753 82.1078 37.3852 82.0115C37.028 81.893 36.741 81.6313 36.5109 81.3318C36.2776 81.0282 36.0727 80.6465 35.8905 80.2223C35.5259 79.3734 35.2226 78.2827 34.973 77.1251C34.4728 74.8052 34.1704 72.1297 34.0444 70.3729C34.0345 70.2345 34.0825 70.0981 34.1771 69.9965C34.2717 69.8949 34.4043 69.8372 34.5431 69.8372H60.7898C62.5451 69.8372 63.7157 69.5616 64.5522 69.0552C65.378 68.5554 65.9399 67.793 66.4025 66.6846C66.871 65.5621 67.2183 64.1349 67.6428 62.3397C67.6613 62.2613 67.68 62.1822 67.6988 62.1025C68.1078 60.3708 68.5884 58.3363 69.3108 56.0029C69.3125 55.9973 69.3144 55.9918 69.3163 55.9864C71.9075 48.5431 72.5697 43.1963 71.9115 39.3866C71.2598 35.6144 69.311 33.3253 66.566 31.9587C60.8125 29.0943 55.0217 31.7062 52.042 33.4368L51.5397 32.5721Z" fill="#FCEEC3"/>
<path fill-rule="evenodd" clip-rule="evenodd" d="M96.8557 12.6484C96.9818 12.776 97.03 12.9613 96.9818 13.1341L85.9818 52.6341C85.9735 52.6642 85.9623 52.6934 85.9485 52.7214C85.6699 53.2857 85.1022 54.1014 84.2803 54.7774C83.4541 55.457 82.3431 56.0172 80.9938 56L81.0065 55.0001C82.0572 55.0135 82.9462 54.58 83.645 54.0051C84.3274 53.4438 84.8018 52.7683 85.0315 52.319L95.7695 13.7601C94.6348 14.1818 93.1845 14.9251 91.8298 16.0365C90.1056 17.4513 88.5595 19.4426 87.9891 22.1048C86.7852 27.7227 76.503 62.3963 71.5002 79.0734V84C71.5002 84.1553 71.4281 84.3017 71.305 84.3963L64.805 89.3963L64.1953 88.6037L70.5002 83.7538V79C70.5002 78.9514 70.5073 78.903 70.5213 78.8563C75.5263 62.1728 85.8168 27.4695 87.0113 21.8952C87.6408 18.9574 89.3447 16.782 91.1955 15.2635C93.0416 13.7487 95.0568 12.8674 96.3713 12.5169C96.5447 12.4707 96.7295 12.5209 96.8557 12.6484Z" fill="#FCEEC3"/>
</svg>
