<svg width="180" height="181" viewBox="0 0 180 181" fill="none" xmlns="http://www.w3.org/2000/svg">
<path d="M56 80C56.3333 72 61.4 55.807 79 51.007C105 43.9161 120 67.007 114 85.507C110.5 98.0071 101.5 98.5071 101 106.507C100.5 114.507 98 126.507 86 127.007C76.4 127.407 73 121.84 72.5 119.007" stroke="#E43CBF"/>
<path d="M23.5 79.5C23.8558 70.9093 27.1275 54.8867 34.2185 42.1513C41.9585 28.2504 54.8445 15.0392 75.352 9.41306C126.5 -4.61919 166.892 45.3483 153.496 86.8983C145.682 114.973 125.588 116.096 124.471 134.063C123.355 152.031 117.773 178.982 90.9808 180.105" stroke="#E43CBF" stroke-opacity="0.3" stroke-width="0.4"/>
<path d="M32 80C32.3044 72.5063 35.6756 57.7716 41.7418 46.6625C48.3632 34.5368 59.3871 23.0126 76.9309 18.1049C120.687 5.86457 155.243 49.4512 143.782 85.6954C137.097 110.185 119.907 111.164 118.952 126.838C117.997 142.511 113.222 166.02 90.3012 167" stroke="#E43CBF" stroke-opacity="0.4" stroke-width="0.5"/>
<path d="M39.5 80C39.764 73.4989 41.3204 62.2389 46.5814 52.6013C52.3239 42.0816 61.8844 32.0838 77.0994 27.8261C115.047 17.207 145.016 55.0206 135.077 86.4642C129.279 107.71 114.371 108.56 113.542 122.157C112.714 135.754 108.573 156.15 88.6949 157" stroke="#E43CBF" stroke-opacity="0.6" stroke-width="0.6"/>
<path d="M47 80C47.2182 74.541 48.9179 66.4296 53.2663 58.3369C58.0126 49.5036 65.9146 41.1085 78.4903 37.5334C109.856 28.6166 134.625 60.3684 126.41 86.7715C121.618 104.611 109.296 105.325 108.611 116.743C107.927 128.16 104.504 145.286 88.0743 146" stroke="#E43CBF" stroke-opacity="0.8"/>
<path d="M70.504 80.2058C70.4179 77.8243 70.9411 75.4604 72.0241 73.3377C73.107 71.215 74.7139 69.4038 76.6925 68.0758C78.6711 66.7477 80.956 65.9467 83.3307 65.7485C85.7054 65.5504 88.0915 65.9617 90.2628 66.9434C92.4341 67.9252 94.319 69.445 95.7387 71.3589C97.1585 73.2727 98.0663 75.5173 98.376 77.8801C98.6858 80.2429 98.3874 82.6456 97.5089 84.8608C96.6305 87.076 94.8449 89.9917 93 91.5C89.5 95 87.9401 97.3606 88.3401 100.961" stroke="#E43CBF"/>
</svg>
