<svg width="180" height="180" viewBox="0 0 180 180" fill="none" xmlns="http://www.w3.org/2000/svg">
<path d="M88.6749 60.8551C89.2387 59.7924 90.7613 59.7924 91.3251 60.8551L95.9741 69.6182C96.3407 70.3092 97.0097 70.7888 97.7819 70.9142L107.667 72.5192C108.876 72.7156 109.353 74.2009 108.483 75.0643L101.505 81.9917C100.937 82.5552 100.673 83.3563 100.795 84.1468L102.284 93.8064C102.469 95.0039 101.231 95.9148 100.143 95.3823L91.0987 90.9574C90.4055 90.6183 89.5945 90.6183 88.9013 90.9574L79.8572 95.3823C78.7688 95.9148 77.5309 95.0039 77.7155 93.8064L79.2046 84.1468C79.3265 83.3563 79.0628 82.5552 78.4951 81.9917L71.517 75.0643C70.6473 74.2009 71.1238 72.7156 72.3334 72.5192L82.2181 70.9142C82.9903 70.7888 83.6592 70.3092 84.0259 69.6182L88.6749 60.8551Z" stroke="#FCEEC3"/>
<path d="M87.5154 10.2151C88.5609 8.2032 91.4391 8.20319 92.4846 10.2151L117.777 58.8876C118.241 59.7814 119.099 60.4043 120.093 60.569L174.257 69.5477C176.497 69.919 177.387 72.6608 175.793 74.2766L137.263 113.328C136.554 114.046 136.226 115.056 136.377 116.053L144.563 170.266C144.901 172.508 142.572 174.202 140.543 173.188L91.43 148.656C90.5297 148.207 89.4703 148.207 88.57 148.656L39.4573 173.188C37.4281 174.202 35.0988 172.508 35.4375 170.266L43.6235 116.053C43.774 115.056 43.4456 114.046 42.7372 113.328L4.20746 74.2766C2.61318 72.6608 3.50331 69.919 5.74271 69.5477L59.9071 60.569C60.9007 60.4043 61.7588 59.7814 62.2232 58.8876L87.5154 10.2151Z" stroke="#FCEEC3" stroke-opacity="0.25" stroke-width="0.4"/>
<path d="M102.323 67.7277L90 44.2179L77.6775 67.7277L51.2849 72.0651L70.0617 90.9324L66.0728 117.123L90 105.274L113.927 117.123L109.938 90.9324L128.715 72.0651L102.323 67.7277Z" stroke="#FCEEC3" stroke-opacity="0.8125" stroke-width="0.85"/>
<path d="M107.764 65.1939L90 31.1453L72.2364 65.1939L34.1899 71.4758L61.2578 98.8008L55.5075 136.732L90 119.571L124.493 136.732L118.742 98.8008L145.81 71.4758L107.764 65.1939Z" stroke="#FCEEC3" stroke-opacity="0.625" stroke-width="0.7"/>
<path d="M113.205 62.6602L90 18.0726L66.7952 62.6602L17.095 70.8864L52.4539 106.669L44.9422 156.341L90 133.868L135.058 156.341L127.546 106.669L162.905 70.8864L113.205 62.6602Z" stroke="#FCEEC3" stroke-opacity="0.4375" stroke-width="0.55"/>
</svg>
