<svg width="180" height="180" viewBox="0 0 180 180" fill="none" xmlns="http://www.w3.org/2000/svg">
<path d="M41.5 123.21V123.21V104.647L66 95.5335L90.5 104.647V123.21C90.5 130.955 88.1776 137.996 83.5248 144.345C78.9005 150.655 73.0617 154.693 66.0001 156.484C58.9363 154.691 53.0963 150.652 48.4721 144.342C43.8192 137.992 41.4979 130.953 41.5 123.21Z" stroke="#57BFEB"/>
<path opacity="0.3" d="M20.5 82.1701V82.17V29.4481L90.5 3.53316L160.5 29.4481V82.17C160.5 104.101 153.888 124.046 140.655 142.017C127.45 159.949 110.735 171.43 90.5 176.485C70.2595 171.424 53.5412 159.941 40.3365 142.008C27.1035 124.037 20.4942 104.096 20.5 82.1701Z" stroke="#57BFEB"/>
<path opacity="0.825" d="M46.035 144.054C52.8948 153.393 61.5914 159.375 72.125 162C82.6556 159.378 91.3507 153.397 98.2104 144.059C105.07 134.72 108.5 124.35 108.5 112.95V85.5L72.125 72L35.75 85.5V112.95C35.747 124.347 39.1753 134.715 46.035 144.054Z" stroke="#57BFEB"/>
<path opacity="0.65" d="M44.0013 143.471C53.0062 155.715 64.4224 163.558 78.25 167C92.0736 163.562 103.488 155.721 112.493 143.477C121.498 131.232 126 117.637 126 102.69V66.7L78.25 49L30.5 66.7V102.69C30.496 117.633 34.9965 131.226 44.0013 143.471Z" stroke="#57BFEB"/>
<path opacity="0.475" d="M41.9676 142.888C53.1176 158.038 67.2534 167.742 84.375 172C101.492 167.747 115.625 158.045 126.775 142.895C137.925 127.745 143.5 110.923 143.5 92.43V47.9L84.375 26L25.25 47.9V92.43C25.2451 110.918 30.8176 127.738 41.9676 142.888Z" stroke="#57BFEB"/>
</svg>
